<svg width="330" height="72" viewBox="0 0 330 72" fill="none" xmlns="http://www.w3.org/2000/svg" role="img" aria-label="MovieFlix">
  <defs>
    <linearGradient id="mfd-g" x1="8" y1="6" x2="56" y2="58" gradientUnits="userSpaceOnUse">
      <stop stop-color="#27C7F0"></stop>
      <stop offset="1" stop-color="#0E5AD2"></stop>
    </linearGradient>
    <clipPath id="mfd-board"><rect x="6" y="25" width="52" height="33" rx="6"></rect></clipPath>
    <clipPath id="mfd-bar"><rect x="8" y="11" width="49" height="13" rx="2.5"></rect></clipPath>
  </defs>
  <rect x="6" y="25" width="52" height="33" rx="6" fill="url(#mfd-g)"></rect>
  <g clip-path="url(#mfd-board)" fill="#fff">
    <path d="M14 26 L19 26 L15.5 31 L10.5 31 Z"></path><path d="M24 26 L29 26 L25.5 31 L20.5 31 Z"></path><path d="M34 26 L39 26 L35.5 31 L30.5 31 Z"></path><path d="M44 26 L49 26 L45.5 31 L40.5 31 Z"></path>
  </g>
  <path d="M28 36 L28 50.5 L42 43.25 Z" fill="#fff"></path>
  <g transform="rotate(-15 11 25)">
    <rect x="8" y="11" width="49" height="13" rx="2.5" fill="url(#mfd-g)"></rect>
    <g clip-path="url(#mfd-bar)" fill="#fff">
      <path d="M13 11 L19 11 L14 24 L8 24 Z"></path><path d="M24 11 L30 11 L25 24 L19 24 Z"></path><path d="M35 11 L41 11 L36 24 L30 24 Z"></path><path d="M46 11 L52 11 L47 24 L41 24 Z"></path><path d="M57 11 L63 11 L58 24 L52 24 Z"></path>
    </g>
  </g>
  <text x="76" y="46" font-family="&#39;Space Grotesk&#39;, &#39;Segoe UI&#39;, sans-serif" font-size="34" font-weight="700" letter-spacing="-0.5">
    <tspan fill="#F2F6FB">Movie</tspan><tspan fill="#27B6F0">Flix</tspan>
  </text>
</svg>